<svg width="115" height="30" viewBox="0 0 115 30" fill="none" xmlns="http://www.w3.org/2000/svg">
<path d="M61.3948 6.71808C58.3773 6.71808 56.2415 7.40961 55.0863 8.44691L55.3512 7.00442H51.5306L49.1611 20.0382H52.9817L54.4102 12.9067C54.861 10.4486 56.7798 8.50364 59.7325 8.12005C62.7839 7.72026 64.6604 9.63007 64.2237 12.0531L62.7614 20.0409H66.6242L68.0978 11.9478C68.6613 8.84129 65.6211 6.71808 61.3948 6.71808Z" fill="white"/>
<path d="M86.4052 3.04083L83.5877 18.4814L83.3003 20.0509H75.7916L75.8029 20.0374C71.2441 19.9482 67.7363 17.3415 68.1899 13.4516C68.6689 9.33485 73.0614 6.79564 77.344 6.85236H80.139L79.8714 8.15169H77.9752C74.0419 8.08685 72.0442 10.9799 72.0668 14.1945C72.0921 16.7553 74.1799 18.6705 76.9693 18.784H79.784L82.6212 3.07325L86.4052 3.04083Z" fill="white"/>
<path d="M83.5995 18.4817L83.3008 20.0511L83.5882 18.4817H83.5995Z" fill="white"/>
<path d="M21.7792 3.03609L18.6826 20.038L22.4639 20.0029L25.5603 3.00098L21.7792 3.03609Z" fill="white"/>
<path d="M3.09076 3.53247L0 20.0401L3.78675 20.005L6.16748 6.32831L3.09076 3.53247Z" fill="white"/>
<path d="M114.713 8.24934L115 6.92301C113.969 6.8987 109.351 6.9014 108.221 6.9014C105.207 6.9014 103.353 8.95168 102.933 11.3585L101.417 20.0756H105.314L106.962 11.1883C107.385 8.75988 108.514 8.3709 110.83 8.27095C112.014 8.22233 113.518 8.22233 114.713 8.24934Z" fill="white"/>
<path d="M92.6911 12.7064H98.7037C99.1489 11.0775 98.498 8.19527 94.6887 8.17636C91.7754 8.16285 88.9917 10.3644 88.7466 14.2002C88.5832 16.7611 90.1919 18.7411 93.1475 18.7411H97.2554L97.0216 20.035H92.336C88.2112 20.1134 84.0075 17.3094 84.709 13.4493C85.374 9.79173 89.5721 6.82301 94.6578 6.86083C99.6758 6.89865 102.868 9.15963 102.282 13.5627C102.259 13.7329 102.257 13.7761 102.209 14.0058H92.4713L92.6911 12.7064Z" fill="white"/>
<path d="M40.2878 12.7094H46.3004C46.7455 11.0805 46.0947 8.19826 42.2854 8.17935C39.3721 8.16584 36.5884 10.3674 36.3432 14.2032C36.1798 16.7641 37.7887 18.7441 40.7443 18.7441H44.8523L44.6184 20.038H39.9329C35.808 20.1164 31.6041 17.3124 32.3057 13.4523C32.9706 9.79472 37.1688 6.826 42.2544 6.86382C47.2725 6.90164 50.4647 9.16262 49.8787 13.5657C49.8562 13.7359 49.8506 13.7791 49.8055 14.0087H40.0681L40.2878 12.7094Z" fill="white"/>
<path d="M18.8017 17.5341C18.1678 19.506 14.7585 20.573 9.89263 20.103C8.04997 19.9193 6.09177 19.5303 4.81543 18.8199C4.81543 18.8199 5.15353 16.8263 5.16762 16.8155C6.06078 17.4341 8.5796 18.4471 10.3237 18.6983C13.3469 19.1332 14.9276 18.3904 14.5106 17.2612C14.0711 16.0646 10.1152 14.5302 9.42777 14.1872C6.29467 12.615 5.76771 11.0645 6.24951 9.59496C6.90881 7.63382 11.2958 6.35881 15.6263 6.98011C17.5507 7.25564 18.9257 7.82832 20.0809 8.60899L18.7313 9.90831C18.0156 9.38156 16.5618 8.48203 14.9276 8.25512C12.358 7.88775 10.1209 8.1957 9.97435 9.55715C9.82784 10.9024 13.4849 12.1882 15.2318 13.0958C18.0916 14.5734 19.2835 16.0781 18.8017 17.5341Z" fill="white"/>
<path d="M27.7467 11.8343C26.8732 12.3854 26.9605 13.5281 27.7128 14.1656L33.9396 20.0382H29.2202L25.0193 16.2753C23.5654 14.9732 23.8416 12.6555 25.58 11.5777L33.1619 7.09357L35.4469 7.12599L27.7467 11.8343Z" fill="white"/>
<path d="M6.9425 1.53704L6.48616 4.33287L1.71313 0H5.57046C6.42136 0 7.07492 0.72935 6.9425 1.53704Z" fill="#DD0613"/>
<path d="M23.3105 27.9234L23.5867 27.6182C24.215 28.1746 24.7926 28.4312 25.635 28.4312C26.4915 28.4312 27.0776 27.9693 27.0776 27.3291C27.0776 26.751 26.7592 26.4134 25.4632 26.1649C24.091 25.9001 23.5388 25.4544 23.5388 24.6089C23.5388 23.7958 24.3137 23.1691 25.3731 23.1691C26.2042 23.1691 26.7536 23.3879 27.3312 23.8336L27.0607 24.1551C26.5226 23.7094 25.9845 23.5365 25.3561 23.5365C24.5165 23.5365 23.9614 23.9984 23.9614 24.5846C23.9614 25.1627 24.2714 25.5139 25.6266 25.7813C26.948 26.0406 27.5031 26.4917 27.5031 27.3075C27.5031 28.1908 26.7114 28.8013 25.6097 28.8013C24.6996 28.7986 23.998 28.5096 23.3105 27.9234Z" fill="white"/>
<path d="M28.3086 27.5479C28.3086 26.7186 29.0524 26.2485 30.1287 26.2485C30.7063 26.2485 31.1064 26.3188 31.5065 26.4214V26.2485C31.5065 25.4435 30.9936 25.0275 30.1371 25.0275C29.6299 25.0275 29.2158 25.1599 28.8326 25.349L28.6861 25.0113C29.1425 24.8087 29.5906 24.6683 30.1626 24.6683C30.7261 24.6683 31.174 24.8168 31.4754 25.1059C31.7515 25.3706 31.901 25.7407 31.901 26.2323V28.7202H31.5093V28.0557C31.2247 28.4393 30.7091 28.8148 29.9174 28.8148C29.1398 28.8148 28.3086 28.3934 28.3086 27.5479ZM31.5149 27.2264V26.7726C31.1627 26.6861 30.7007 26.5916 30.1034 26.5916C29.2215 26.5916 28.734 26.9671 28.734 27.537C28.734 28.1151 29.306 28.4528 29.94 28.4528C30.788 28.4555 31.5149 27.9558 31.5149 27.2264Z" fill="white"/>
<path d="M33.1738 24.7329H33.5739V25.4758C33.85 25.0057 34.3149 24.6384 35.0757 24.6384C36.1266 24.6384 36.7409 25.3272 36.7409 26.2808V28.72H36.3407V26.351C36.3407 25.5298 35.8589 24.9895 35.0193 24.9895C34.2022 24.9895 33.5766 25.5838 33.5766 26.4131V28.72H33.1766V24.7329H33.1738Z" fill="white"/>
<path d="M38.0234 23.1691H38.5193V23.6931H38.0234V23.1691ZM38.0713 24.7331H38.4714V28.7229H38.0713V24.7331Z" fill="white"/>
<path d="M40.1059 27.6964V25.0842H39.5029V24.7331H40.1059V23.4581H40.506V24.7331H41.9654V25.0842H40.506V27.6586C40.506 28.2286 40.8581 28.4339 41.3371 28.4339C41.5399 28.4339 41.7119 28.396 41.9486 28.2934V28.6527C41.7373 28.7472 41.5315 28.7931 41.2723 28.7931C40.6271 28.7931 40.1059 28.4555 40.1059 27.6964Z" fill="white"/>
<path d="M42.6445 27.5479C42.6445 26.7186 43.3883 26.2485 44.4646 26.2485C45.0422 26.2485 45.4424 26.3188 45.8425 26.4214V26.2485C45.8425 25.4435 45.3297 25.0275 44.4732 25.0275C43.966 25.0275 43.5517 25.1599 43.1686 25.349L43.022 25.0113C43.4785 24.8087 43.9265 24.6683 44.4985 24.6683C45.062 24.6683 45.51 24.8168 45.8115 25.1059C46.0876 25.3706 46.2369 25.7407 46.2369 26.2323V28.7202H45.8452V28.0557C45.5606 28.4393 45.0451 28.8148 44.2533 28.8148C43.4785 28.8148 42.6445 28.3934 42.6445 27.5479ZM45.8509 27.2264V26.7726C45.4987 26.6861 45.0367 26.5916 44.4393 26.5916C43.5574 26.5916 43.0701 26.9671 43.0701 27.537C43.0701 28.1151 43.6419 28.4528 44.2759 28.4528C45.124 28.4555 45.8509 27.9558 45.8509 27.2264Z" fill="white"/>
<path d="M47.5137 24.7338H47.9137V25.8683C48.2406 25.1579 48.9337 24.6393 49.7564 24.6717V25.0931H49.7169C48.7533 25.0931 47.9137 25.79 47.9137 27.0866V28.7209H47.5137V24.7338Z" fill="white"/>
<path d="M50.297 29.8252L50.435 29.4902C50.6547 29.5929 50.8351 29.6388 51.145 29.6388C51.5789 29.6388 51.8634 29.3957 52.1734 28.7015L50.1758 24.736H50.6406L52.3707 28.3017L53.8724 24.736H54.312L52.5088 28.8662C52.1425 29.7036 51.7169 30.0008 51.1224 30.0008C50.8012 29.9954 50.5731 29.9414 50.297 29.8252Z" fill="white"/>
<path d="M57.1777 24.7333H57.6257L58.8823 28.2368L60.1389 24.717H60.4574L61.714 28.2368L62.9706 24.7333H63.4045L61.8802 28.7528H61.5365L60.2967 25.3356L59.0486 28.7528H58.7077L57.1777 24.7333Z" fill="white"/>
<path d="M63.8975 27.5479C63.8975 26.7186 64.6413 26.2485 65.7176 26.2485C66.2952 26.2485 66.6953 26.3188 67.0954 26.4214V26.2485C67.0954 25.4435 66.5825 25.0275 65.726 25.0275C65.2188 25.0275 64.8047 25.1599 64.4215 25.349L64.275 25.0113C64.7314 24.8087 65.1795 24.6683 65.7514 24.6683C66.3149 24.6683 66.7628 24.8168 67.0643 25.1059C67.3404 25.3706 67.4898 25.7407 67.4898 26.2323V28.7202H67.0981V28.0557C66.8136 28.4393 66.298 28.8148 65.5063 28.8148C64.7314 28.8148 63.8975 28.3934 63.8975 27.5479ZM67.1038 27.2264V26.7726C66.7516 26.6861 66.2896 26.5916 65.6923 26.5916C64.8104 26.5916 64.3228 26.9671 64.3228 27.537C64.3228 28.1151 64.8949 28.4528 65.5288 28.4528C66.3769 28.4555 67.1038 27.9558 67.1038 27.2264Z" fill="white"/>
<path d="M68.7627 24.7338H69.1628V25.8683C69.4896 25.1579 70.1827 24.6393 71.0054 24.6717V25.0931H70.966C70.0024 25.0931 69.1628 25.79 69.1628 27.0866V28.7209H68.7627V24.7338Z" fill="white"/>
<path d="M71.3779 26.7184C71.3779 25.5622 72.2261 24.6384 73.3531 24.6384C74.5196 24.6384 75.2606 25.546 75.2606 26.7265C75.2606 26.7967 75.2605 26.821 75.252 26.8831H71.8006C71.8738 27.8772 72.6177 28.4553 73.4319 28.4553C74.0771 28.4553 74.5166 28.1825 74.8604 27.8286L75.1365 28.0636C74.7138 28.5012 74.2152 28.8146 73.415 28.8146C72.3218 28.8146 71.3779 27.9772 71.3779 26.7184ZM74.8267 26.5401C74.7703 25.7351 74.2884 24.9922 73.3333 24.9922C72.5077 24.9922 71.8739 25.6568 71.7978 26.5401H74.8267Z" fill="white"/>
</svg>
